<svg width="360" height="96" viewBox="0 0 360 96" fill="none" xmlns="http://www.w3.org/2000/svg">
  <defs>
    <linearGradient id="xspinPurple" x1="16" y1="13" x2="86" y2="83" gradientUnits="userSpaceOnUse">
      <stop stop-color="#C836FF"/>
      <stop offset="0.5" stop-color="#7E1DFF"/>
      <stop offset="1" stop-color="#A64CFF"/>
    </linearGradient>
    <filter id="xspinGlow" x="0" y="0" width="108" height="96" filterUnits="userSpaceOnUse" color-interpolation-filters="sRGB">
      <feGaussianBlur in="SourceAlpha" stdDeviation="2.4" result="blur"/>
      <feColorMatrix in="blur" type="matrix" values="0 0 0 0 0.56 0 0 0 0 0.12 0 0 0 0 1 0 0 0 0.75 0"/>
      <feBlend in="SourceGraphic"/>
    </filter>
    <filter id="wordShadow" x="104" y="18" width="242" height="62" filterUnits="userSpaceOnUse" color-interpolation-filters="sRGB">
      <feDropShadow dx="0" dy="2" stdDeviation="1.8" flood-color="#000000" flood-opacity="0.45"/>
    </filter>
  </defs>

  <g filter="url(#xspinGlow)">
    <path d="M14.1 17.4C11.7 13.2 14.7 8 19.6 8H43.4C47.4 8 51 10 53.2 13.4L65.4 31.8L77.8 13.5C80 10.1 83.8 8 87.8 8H101.2C106.8 8 109.6 14.8 105.7 18.8L79.4 46.2L106.2 74.7C110 78.8 107.1 85.5 101.5 85.5H78.2C74.1 85.5 70.3 83.4 68.1 79.9L54.1 58.7L39.7 80C37.5 83.4 33.8 85.5 29.7 85.5H15.3C9.7 85.5 6.8 78.8 10.6 74.7L37.9 46.1L14.1 17.4Z" fill="url(#xspinPurple)"/>
    <path d="M34.6 43.8C43.1 25.9 67.3 22.1 86.7 32.1C68.7 27.5 51.8 31.4 41.4 42.5C33.8 50.7 38.3 59.2 51.4 61.8C35.2 61.1 28.1 53.5 34.6 43.8Z" fill="#050711"/>
    <path d="M43.8 50.3C52.1 40.4 68.6 37.6 82.3 43.9C68.2 42 56.1 46.2 49.1 54C43.9 59.9 48.5 65.4 58 65.6C45.5 67.1 37.6 58.1 43.8 50.3Z" fill="#050711"/>
    <path d="M31.5 31.8C42.4 18.4 64.6 15.2 84.4 23.3C61.7 19.6 41.8 27.9 31.3 43.6C25.7 39.8 26.1 35.3 31.5 31.8Z" fill="#050711"/>
  </g>

  <g filter="url(#wordShadow)" fill="#F8F7FF">
    <text x="122" y="68" font-family="Arial Black, Impact, system-ui, sans-serif" font-size="56" font-weight="900" letter-spacing="1.5">SPIN</text>
  </g>
</svg>
