<svg width="360" height="96" viewBox="0 0 360 96" fill="none" xmlns="http://www.w3.org/2000/svg">
  <defs>
    <linearGradient id="xspinLogoFill" x1="8" y1="18" x2="90" y2="78" gradientUnits="userSpaceOnUse">
      <stop stop-color="#2EF0C1"/>
      <stop offset="0.46" stop-color="#087986"/>
      <stop offset="0.7" stop-color="#416CFF"/>
      <stop offset="1" stop-color="#E244FF"/>
    </linearGradient>
    <linearGradient id="xspinLogoStroke" x1="10" y1="20" x2="89" y2="76" gradientUnits="userSpaceOnUse">
      <stop stop-color="#57FFD6"/>
      <stop offset="0.56" stop-color="#1FE9F1"/>
      <stop offset="1" stop-color="#FF5CF2"/>
    </linearGradient>
    <radialGradient id="xspinLogoCore" cx="0" cy="0" r="1" gradientUnits="userSpaceOnUse" gradientTransform="translate(49 50) rotate(28) scale(32 22)">
      <stop stop-color="#32FFE1"/>
      <stop offset="0.55" stop-color="#673BFF"/>
      <stop offset="1" stop-color="#FF55E8"/>
    </radialGradient>
    <filter id="xspinLogoGlow" x="0" y="0" width="106" height="96" filterUnits="userSpaceOnUse" color-interpolation-filters="sRGB">
      <feGaussianBlur in="SourceAlpha" stdDeviation="2.6" result="blur"/>
      <feColorMatrix in="blur" type="matrix" values="0 0 0 0 0.08 0 0 0 0 0.92 0 0 0 0 0.88 0 0 0 0.75 0"/>
      <feBlend in="SourceGraphic"/>
    </filter>
    <filter id="xspinWordShadow" x="106" y="18" width="240" height="60" filterUnits="userSpaceOnUse" color-interpolation-filters="sRGB">
      <feDropShadow dx="0" dy="2" stdDeviation="1.8" flood-color="#000000" flood-opacity="0.5"/>
    </filter>
  </defs>
  <g filter="url(#xspinLogoGlow)">
    <path d="M13.4 17.2C11.5 13.5 14.1 9.2 18.3 9.2H33.5C38 9.2 42 11.6 44.3 15.4L50.2 25.6L57.4 14.9C59.7 11.4 63.6 9.2 67.8 9.2H80C84.7 9.2 87.3 14.8 84.3 18.3L64.7 42.2L85.1 86C87 90.2 84 94.9 79.4 94.9H67.2C62.9 94.9 59 92.7 56.7 89.1L49.1 76.9L40.7 89.6C38.4 92.9 34.7 94.9 30.7 94.9H17.7C13 94.9 10.3 89.4 13.4 85.8L35 59.5L13.4 17.2Z" fill="url(#xspinLogoFill)"/>
    <path d="M18.3 11.8H33.5C37.1 11.8 40.4 13.8 42.2 16.9L50 30.4L59.5 16.5C61.3 13.6 64.4 11.8 67.8 11.8H80C82.7 11.8 84.2 14.9 82.5 17L61.9 41.9L83 87.2C84.1 89.6 82.3 92.4 79.4 92.4H67.2C63.8 92.4 60.5 90.6 58.8 87.7L49.2 72.5L38.7 88.2C36.8 90.8 33.9 92.4 30.7 92.4H17.7C15 92.4 13.5 89.3 15.2 87.2L37.8 59.7L16 16.6C15 14.5 16.2 11.8 18.3 11.8Z" stroke="url(#xspinLogoStroke)" stroke-width="2.6"/>
    <path d="M21.6 86L46.9 55L35.5 32.5C34.4 30.4 35.9 27.8 38.3 27.8H48.7C52.7 27.8 56.4 29.9 58.3 33.3L64 43L44.7 63.6L26.8 91H24.5C20.7 91 19.1 88.9 21.6 86Z" fill="url(#xspinLogoFill)" opacity="0.9"/>
    <path d="M83.7 17L58.8 47.3L70 70.8C71.1 73.2 69.4 75.9 66.8 75.9H58.4C54.6 75.9 51.1 73.9 49.1 70.8L42.8 61.4L62.9 40L79.3 10.9C83.9 10.3 86.1 13.4 83.7 17Z" fill="url(#xspinLogoFill)" opacity="0.9"/>
    <path d="M23.8 36.5C34.2 23 57.3 21.8 75.5 33.4C58.5 27.7 41.3 30.8 31.7 40.9C23.5 49.5 28.8 58.5 42.5 61.1C25.2 60.9 16 47.8 23.8 36.5Z" fill="#061019"/>
    <path d="M31.3 43.9C41 33.3 59.3 31.3 74.1 40.3C59.6 36.6 45.5 39.7 38.1 48.5C32.5 55.2 38.1 60.9 48.5 60.7C34.8 63.4 24.1 52 31.3 43.9Z" fill="#061019"/>
    <path d="M39.7 51C47.7 44.7 61.5 43.8 72.2 49.9C61.5 48.3 51.7 50.9 46.6 56.7C42.4 62 48 65.8 56.8 63.5C46.7 67.7 34.3 59.8 39.7 51Z" fill="#061019"/>
    <path d="M44.8 51.8C50.5 44.7 63.3 43.1 73.5 50.1C63.3 47.4 54.1 50.1 49.6 55.8C45 61.5 49.2 66 57.7 64C47.3 69 38.5 60.1 44.8 51.8Z" fill="url(#xspinLogoCore)" opacity="0.9"/>
    <path d="M23.8 36.2C34.2 23.7 57.2 21.4 75.2 33.1C57.5 27 39.7 30.6 30.5 42.8" stroke="#49FFE1" stroke-width="2.4" stroke-linecap="round" opacity="0.9"/>
    <path d="M31.7 44.2C41.4 33.6 59.4 31.8 73.8 40.2C59.9 37 45.7 40.4 38.1 49" stroke="#5CEEFF" stroke-width="2.1" stroke-linecap="round" opacity="0.82"/>
    <path d="M40.1 51.5C48 45.1 61.4 44.4 71.8 49.9C61 48.5 51.8 51.1 46.8 56.6" stroke="#FB5CFF" stroke-width="2" stroke-linecap="round" opacity="0.9"/>
  </g>
  <g filter="url(#xspinWordShadow)" fill="#F8F7FF">
    <text x="112" y="67" font-family="Arial Black, Impact, system-ui, sans-serif" font-size="54" font-weight="900" letter-spacing="1.4">SPIN</text>
  </g>
</svg>
